<?xml version="1.0" encoding="utf-8"?>
<!-- Generator: Adobe Illustrator 26.0.3, SVG Export Plug-In . SVG Version: 6.00 Build 0)  -->
<svg version="1.1" id="Layer_1" xmlns="http://www.w3.org/2000/svg" xmlns:xlink="http://www.w3.org/1999/xlink" x="0px" y="0px"
	 viewBox="0 0 2000 2000" style="enable-background:new 0 0 2000 2000;" xml:space="preserve">
    <defs>
        <style>
            .header-logo-gray {
                fill: #0f0f0f;
            }
            .header-logo-fill {
                fill: #D81515;
            }
            .header-logo-gray800 {
                fill: #54595F;
            }
            .header-logo-gray900 {
                fill: #0f0f0f;
            }
            .header-logo-red300 {
                fill: #e77272;
            }
            .header-logo-red400 {
                fill: #df4343;
            }
            .header-logo-red600 {
                fill: #a21010;
            }
            .header-logo-red700 {
                fill: #810c0c;
            }
        </style>
        <!-- GOLD GRADIENT -->
        <linearGradient id="gold-vertical" x1="50%" y1="0%" x2="50%" y2="100%" >    
            <stop offset="0%" stop-color="#B88746">
            </stop>
            <stop offset="100%" stop-color="#FDF5A6">
            </stop>
        </linearGradient> 
        <linearGradient id="gold-horizontal" x1="0%" y1="50%" x2="100%" y2="50%" >    
            <stop offset="0%" stop-color="#B88746">
            </stop>
            <stop offset="100%" stop-color="#FDF5A6">
            </stop>
        </linearGradient>
      
        <!-- SILVER GRADIENT -->
        <linearGradient id="silver-vertical" x1="50%" y1="0%" x2="50%" y2="100%" >    
            <stop offset="0%" stop-color="#808080">
            </stop>
            <stop offset="100%" stop-color="#e0e0e0">
            </stop>
        </linearGradient> 
        <linearGradient id="silver-horizontal" x1="0%" y1="50%" x2="100%" y2="50%" >    
            <stop offset="0%" stop-color="#808080">
            </stop>
            <stop offset="100%" stop-color="#e0e0e0">
            </stop>
        </linearGradient> 
      
        <!-- BRONZE GRADIENT -->
        <linearGradient id="bronze-vertical" x1="50%" y1="0%" x2="50%" y2="100%" >    
            <stop offset="0%" stop-color="#9e6941">
            </stop>
            <stop offset="100%" stop-color="#dda680">
            </stop>
        </linearGradient> 
        <linearGradient id="bronze-horizontal" x1="0%" y1="50%" x2="100%" y2="50%" >    
            <stop offset="0%" stop-color="#9e6941">
            </stop>
            <stop offset="100%" stop-color="#dda680">
            </stop>
        </linearGradient> 
      
        <!-- ROSE GOLD GRADIENT (BECAUSE MILLENNIAL PINK IS LIKE, SO HOT RN)-->
        <linearGradient id="pink-vertical" x1="50%" y1="0%" x2="50%" y2="100%" >    
            <stop offset="0%" stop-color="#bd7d75">
            </stop>
            <stop offset="100%" stop-color="#ffc5b9">
            </stop>
        </linearGradient> 
        <linearGradient id="pink-horizontal" x1="0%" y1="50%" x2="100%" y2="50%" >    
            <stop offset="0%" stop-color="#bd7d75">
            </stop>
            <stop offset="100%" stop-color="#ffc5b9">
            </stop>
        </linearGradient>
      
        <!-- GOLD NOISE -->
        <pattern id="gold-noise" width="1" height="1" patternContentUnits="objectBoundingBox">
            <image xlink:href="https://s3-us-west-2.amazonaws.com/s.cdpn.io/160607/metal.png" x="0" y="0" width="1" height="1" />
            <rect width="1" height="1" fill="url(#gold-vertical)" style="mix-blend-mode: multiply;"/>
        </pattern>
        <pattern id="gold-noise2" width="1" height="1" patternContentUnits="objectBoundingBox">
            <image xlink:href="https://s3-us-west-2.amazonaws.com/s.cdpn.io/160607/metal.png" x="0" y="0" width="1" height="1" />
            <rect width="1" height="1" fill="url(#gold-horizontal)" style="mix-blend-mode: multiply;"/>
        </pattern>
      
        <!-- SILVER NOISE -->
        <pattern id="silver-noise" width="1" height="1" patternContentUnits="objectBoundingBox">
            <image xlink:href="https://s3-us-west-2.amazonaws.com/s.cdpn.io/160607/metal.png" x="0" y="0" width="1" height="1" />
            <rect width="1" height="1" fill="url(#silver-vertical)" style="mix-blend-mode: multiply;"/>
        </pattern>
        <pattern id="silver-noise2" width="1" height="1" patternContentUnits="objectBoundingBox">
            <image xlink:href="https://s3-us-west-2.amazonaws.com/s.cdpn.io/160607/metal.png" x="0" y="0" width="1" height="1" />
            <rect width="1" height="1" fill="url(#silver-horizontal)" style="mix-blend-mode: multiply;"/>
        </pattern>
      
        <!-- BRONZE NOISE -->
        <pattern id="bronze-noise" width="1" height="1" patternContentUnits="objectBoundingBox">
            <image xlink:href="https://s3-us-west-2.amazonaws.com/s.cdpn.io/160607/metal.png" x="0" y="0" width="1" height="1" />
            <rect width="1" height="1" fill="url(#bronze-vertical)" style="mix-blend-mode: multiply;"/>
        </pattern>
        <pattern id="bronze-noise2" width="1" height="1" patternContentUnits="objectBoundingBox">
            <image xlink:href="https://s3-us-west-2.amazonaws.com/s.cdpn.io/160607/metal.png" x="0" y="0" width="1" height="1" />
            <rect width="1" height="1" fill="url(#bronze-horizontal)" style="mix-blend-mode: multiply;"/>
        </pattern>
        
        <!-- ROSE GOLD NOISE -->
        <pattern id="pink-noise" width="1" height="1" patternContentUnits="objectBoundingBox">
            <image xlink:href="https://s3-us-west-2.amazonaws.com/s.cdpn.io/160607/metal.png" x="0" y="0" width="1" height="1" />
            <rect width="1" height="1" fill="url(#pink-vertical)" style="mix-blend-mode: multiply;"/>
        </pattern>
        <pattern id="pink-noise2" width="1" height="1" patternContentUnits="objectBoundingBox">
            <image xlink:href="https://s3-us-west-2.amazonaws.com/s.cdpn.io/160607/metal.png" x="0" y="0" width="1" height="1" />
            <rect width="1" height="1" fill="url(#pink-horizontal)" style="mix-blend-mode: multiply;"/>
        </pattern>
    </defs>
    <style type="text/css">
        .st0{fill:#E33024;}
    </style>
    <g>
        <g>
            <path class="st1" fill="url(#gold-noise)" d="M417.49,1194.43h-93.66l-28.13-74.81h-145.9l-28.13,74.81H28l154.56-382.69h80.37L417.49,1194.43z
                M223.36,929.22h-1.24l-42.66,113.44h86.55L223.36,929.22z"/>
            <path class="st1" fill="url(#gold-noise)" d="M546.13,811.75c74.8,0,130.76,38.95,130.76,118.7c0,79.44-55.95,123.64-130.76,123.64h-52.55v140.34h-87.17
                V811.75H546.13z M518.31,984.23c34.31,0,66.77-11.74,66.77-51.31c0-39.88-32.45-51.63-66.77-51.63h-24.73v102.93H518.31z"/>
            <path class="st1" fill="url(#gold-noise)" d="M689.3,798.77h82.23v395.67H689.3V798.77z"/>
            <path class="st1" fill="url(#gold-noise)" d="M984.52,967.85l-26.89,53.79c0,0-27.82-14.84-52.86-14.84c-18.24,0-25.66,3.4-25.66,14.52
                c0,12.68,16.69,16.08,37.1,22.57c31.53,9.89,72.33,27.21,72.33,76.04c0,70.18-63.68,81.3-112.52,81.3
                c-57.5,0-92.12-32.15-92.12-32.15l33.39-56.26c0,0,32.45,27.52,59.04,27.52c11.75,0,25.66-1.24,25.66-17.01
                c0-17.31-26.28-18.85-53.17-32.76c-24.11-12.37-48.22-29.06-48.22-64.92c0-48.84,41.42-76.35,104.17-76.35
                C950.83,949.31,984.52,967.85,984.52,967.85z"/>
            <path class="st1" fill="url(#gold-noise)" d="M1014.53,868.01h82.23v88.41h50.08v62.75h-50.08v75.43c0,22.25,5.57,32.77,18.55,32.77
                c10.51,0,20.4-7.43,20.4-7.43l20.4,66.47c0,0-26.28,14.83-60.28,14.83c-65.53,0-81.3-48.84-81.3-90.88v-91.19h-34.3v-62.75h34.3
                V868.01z"/>
            <path class="st1" fill="url(#gold-noise)" d="M1284.11,949.31c78.83,0,142.19,51.92,142.19,126.12c0,73.26-59.97,125.81-142.19,125.81
                c-85.93,0-143.43-52.55-143.43-125.81C1140.68,1001.23,1203.74,949.31,1284.11,949.31z M1283.8,1131.07
                c32.14,0,55.32-23.18,55.32-55.64c0-32.77-24.72-55.95-55.32-55.95c-31.23,0-55.95,23.18-55.95,55.95
                C1227.85,1107.88,1250.41,1131.07,1283.8,1131.07z"/>
            <path class="st1" fill="url(#gold-noise)" d="M1438.08,798.77h82.23v395.67h-82.23V798.77z"/>
            <path class="st1" fill="url(#gold-noise)" d="M1640.88,858.12c0,26.89-21.95,48.53-48.84,48.53s-48.53-21.64-48.53-48.53c0-26.89,21.64-48.84,48.53-48.84
                S1640.88,831.22,1640.88,858.12z M1550,1194.13h82.23V956.42H1550V1194.13z"/>
            <path class="st1" fill="url(#gold-noise)" d="M1733.95,1075.12c0,32.77,25.96,58.73,56.88,58.73c24.72,0,39.57-11.13,39.57-11.13l27.82,57.19
                c0,0-26.89,21.32-79.75,21.32c-68.63,0-131.68-55.64-131.68-125.19c0-70.17,62.44-126.73,131.68-126.73
                c52.86,0,79.75,22.25,79.75,22.25l-27.82,56.26c0,0-14.84-11.12-39.57-11.12C1759.9,1016.69,1733.95,1042.66,1733.95,1075.12z"/>
            <path class="st1" fill="url(#gold-noise)" d="M1972,1148.38c0,29.37-23.81,52.86-53.48,52.86c-29.36,0-52.86-23.49-52.86-52.86
                c0-29.68,23.5-53.48,52.86-53.48C1948.19,1094.9,1972,1118.7,1972,1148.38z"/>
        </g>
    </g>
</svg>
