<svg id="Layer_1" data-name="Layer 1" xmlns="http://www.w3.org/2000/svg" viewBox="0 0 317.8 53.87">
    <defs>
        <style>
            .header-logo-gray {
                fill: #0f0f0f;
            }
            .header-logo-fill {
                fill: #D81515;
            }
            .header-logo-gray800 {
                fill: #54595F;
            }
            .header-logo-gray900 {
                fill: #0f0f0f;
            }
            .header-logo-red300 {
                fill: #e77272;
            }
            .header-logo-red400 {
                fill: #df4343;
            }
            .header-logo-red600 {
                fill: #a21010;
            }
            .header-logo-red700 {
                fill: #810c0c;
            }
        </style>
        <!-- GOLD GRADIENT -->
        <linearGradient id="gold-vertical" x1="50%" y1="0%" x2="50%" y2="100%" >    
            <stop offset="0%" stop-color="#B88746">
            </stop>
            <stop offset="100%" stop-color="#FDF5A6">
            </stop>
        </linearGradient> 
        <linearGradient id="gold-horizontal" x1="0%" y1="50%" x2="100%" y2="50%" >    
            <stop offset="0%" stop-color="#B88746">
            </stop>
            <stop offset="100%" stop-color="#FDF5A6">
            </stop>
        </linearGradient>
      
        <!-- SILVER GRADIENT -->
        <linearGradient id="silver-vertical" x1="50%" y1="0%" x2="50%" y2="100%" >    
            <stop offset="0%" stop-color="#808080">
            </stop>
            <stop offset="100%" stop-color="#e0e0e0">
            </stop>
        </linearGradient> 
        <linearGradient id="silver-horizontal" x1="0%" y1="50%" x2="100%" y2="50%" >    
            <stop offset="0%" stop-color="#808080">
            </stop>
            <stop offset="100%" stop-color="#e0e0e0">
            </stop>
        </linearGradient> 
      
        <!-- BRONZE GRADIENT -->
        <linearGradient id="bronze-vertical" x1="50%" y1="0%" x2="50%" y2="100%" >    
            <stop offset="0%" stop-color="#9e6941">
            </stop>
            <stop offset="100%" stop-color="#dda680">
            </stop>
        </linearGradient> 
        <linearGradient id="bronze-horizontal" x1="0%" y1="50%" x2="100%" y2="50%" >    
            <stop offset="0%" stop-color="#9e6941">
            </stop>
            <stop offset="100%" stop-color="#dda680">
            </stop>
        </linearGradient> 
      
        <!-- ROSE GOLD GRADIENT (BECAUSE MILLENNIAL PINK IS LIKE, SO HOT RN)-->
        <linearGradient id="pink-vertical" x1="50%" y1="0%" x2="50%" y2="100%" >    
            <stop offset="0%" stop-color="#bd7d75">
            </stop>
            <stop offset="100%" stop-color="#ffc5b9">
            </stop>
        </linearGradient> 
        <linearGradient id="pink-horizontal" x1="0%" y1="50%" x2="100%" y2="50%" >    
            <stop offset="0%" stop-color="#bd7d75">
            </stop>
            <stop offset="100%" stop-color="#ffc5b9">
            </stop>
        </linearGradient>
      
        <!-- GOLD NOISE -->
        <pattern id="gold-noise" width="1" height="1" patternContentUnits="objectBoundingBox">
            <image xlink:href="https://s3-us-west-2.amazonaws.com/s.cdpn.io/160607/metal.png" x="0" y="0" width="1" height="1" />
            <rect width="1" height="1" fill="url(#gold-vertical)" style="mix-blend-mode: multiply;"/>
        </pattern>
        <pattern id="gold-noise2" width="1" height="1" patternContentUnits="objectBoundingBox">
            <image xlink:href="https://s3-us-west-2.amazonaws.com/s.cdpn.io/160607/metal.png" x="0" y="0" width="1" height="1" />
            <rect width="1" height="1" fill="url(#gold-horizontal)" style="mix-blend-mode: multiply;"/>
        </pattern>
      
        <!-- SILVER NOISE -->
        <pattern id="silver-noise" width="1" height="1" patternContentUnits="objectBoundingBox">
            <image xlink:href="https://s3-us-west-2.amazonaws.com/s.cdpn.io/160607/metal.png" x="0" y="0" width="1" height="1" />
            <rect width="1" height="1" fill="url(#silver-vertical)" style="mix-blend-mode: multiply;"/>
        </pattern>
        <pattern id="silver-noise2" width="1" height="1" patternContentUnits="objectBoundingBox">
            <image xlink:href="https://s3-us-west-2.amazonaws.com/s.cdpn.io/160607/metal.png" x="0" y="0" width="1" height="1" />
            <rect width="1" height="1" fill="url(#silver-horizontal)" style="mix-blend-mode: multiply;"/>
        </pattern>
      
        <!-- BRONZE NOISE -->
        <pattern id="bronze-noise" width="1" height="1" patternContentUnits="objectBoundingBox">
            <image xlink:href="https://s3-us-west-2.amazonaws.com/s.cdpn.io/160607/metal.png" x="0" y="0" width="1" height="1" />
            <rect width="1" height="1" fill="url(#bronze-vertical)" style="mix-blend-mode: multiply;"/>
        </pattern>
        <pattern id="bronze-noise2" width="1" height="1" patternContentUnits="objectBoundingBox">
            <image xlink:href="https://s3-us-west-2.amazonaws.com/s.cdpn.io/160607/metal.png" x="0" y="0" width="1" height="1" />
            <rect width="1" height="1" fill="url(#bronze-horizontal)" style="mix-blend-mode: multiply;"/>
        </pattern>
        
        <!-- ROSE GOLD NOISE -->
        <pattern id="pink-noise" width="1" height="1" patternContentUnits="objectBoundingBox">
            <image xlink:href="https://s3-us-west-2.amazonaws.com/s.cdpn.io/160607/metal.png" x="0" y="0" width="1" height="1" />
            <rect width="1" height="1" fill="url(#pink-vertical)" style="mix-blend-mode: multiply;"/>
        </pattern>
        <pattern id="pink-noise2" width="1" height="1" patternContentUnits="objectBoundingBox">
            <image xlink:href="https://s3-us-west-2.amazonaws.com/s.cdpn.io/160607/metal.png" x="0" y="0" width="1" height="1" />
            <rect width="1" height="1" fill="url(#pink-horizontal)" style="mix-blend-mode: multiply;"/>
        </pattern>
    </defs>
    <title>McNH Logo Tag Gold</title>
    <path class="mcnh" fill="url(#gold-noise)"
        d="M42.64,36.08V33.79a1.92,1.92,0,0,0,1.43-.71,4.75,4.75,0,0,0,.66-3V12.3c0-1.93-.69-2.89-2.07-2.89V7.2H49l6.19,20.38L61.31,7.2h6.24V9.41c-1.39,0-2.07.94-2.07,2.81V30.11c0,2.45.72,3.68,2.15,3.68v2.29H59.26V33.79c1.42.05,2.14-1.18,2.14-3.69V13.47L54.45,36.08H53.14l-6.75-22V30a7.2,7.2,0,0,0,.43,3,1.76,1.76,0,0,0,1.67.77v2.29Z" />
    <path fill="url(#gold-noise)" class="mcnh"
        d="M82.7,20.76H81.12a5.63,5.63,0,0,0-1.55-3.54,3.63,3.63,0,0,0-1.34-.78,5.45,5.45,0,0,0-1.46-.18,3.2,3.2,0,0,0-1.7.52,3.46,3.46,0,0,0-1.38,1.59,16.13,16.13,0,0,0-1.15,6.87,16.11,16.11,0,0,0,1.15,6.86A3.82,3.82,0,0,0,75,33.71a3,3,0,0,0,1.63.52,3.68,3.68,0,0,0,2.76-1.16,6.55,6.55,0,0,0,1.51-2.81h1.79a9.94,9.94,0,0,1-2.25,4.47,4.87,4.87,0,0,1-3.74,1.65,6.15,6.15,0,0,1-1.52-.19,6.94,6.94,0,0,1-1.48-.56,7.51,7.51,0,0,1-1.36-.91,6.51,6.51,0,0,1-1.13-1.21,11.82,11.82,0,0,1-1.6-3.59,17.5,17.5,0,0,1-.57-4.64A14,14,0,0,1,71.24,17a7.45,7.45,0,0,1,1.67-1.69,6.11,6.11,0,0,1,2-.94c.31-.07.6-.12.89-.16a6.11,6.11,0,0,1,.86-.06,6.52,6.52,0,0,1,2.5.52,3.15,3.15,0,0,0,1.21.34c.32,0,.51-.21.56-.62H82.7Z" />
    <path fill="url(#gold-noise)" class="mcnh"
        d="M84.15,36.08V33.79a1.92,1.92,0,0,0,1.42-.71,4.75,4.75,0,0,0,.66-3V12.12a3,3,0,0,0-.62-2,1.66,1.66,0,0,0-1.14-.71V7.2h4.89L99,25.68V13.21a4.83,4.83,0,0,0-.66-3A1.9,1.9,0,0,0,97,9.45V7.16h5.84V9.45a1.74,1.74,0,0,0-1.67.78,7,7,0,0,0-.43,3V36.08H99L87.89,14V30a7.2,7.2,0,0,0,.43,3,1.76,1.76,0,0,0,1.67.77v2.29Z" />
    <path fill="url(#gold-noise)" class="mcnh"
        d="M114.73,30.86h-7.28c-.09.25-.18.5-.25.74s-.17.48-.27.73a2.69,2.69,0,0,0-.14.73.78.78,0,0,0,.36.7,1.73,1.73,0,0,0,.93.23v2.07h-5V34c1.06,0,1.83-.72,2.33-2.15l5.95-17.41h1.83l6.19,18c.36,1.08,1,1.61,1.88,1.61v2.07H114V34c.89,0,1.34-.29,1.34-.87a2.28,2.28,0,0,0,0-.4c0-.16-.07-.32-.12-.47Zm-6.56-2h5.89c-.25-.74-.5-1.45-.73-2.15s-.48-1.39-.71-2.09-.48-1.39-.72-2.1-.5-1.43-.74-2.17Z" />
    <path fill="url(#gold-noise)" class="mcnh"
        d="M128.75,36.38a7.08,7.08,0,0,1-2.43-.41,6.68,6.68,0,0,1-2.06-1.22,5.08,5.08,0,0,1-1.89-4V19q0-2.49-1.74-2.49V14.43h7.1V16.5c-1.16,0-1.74.8-1.74,2.53V30.09a3.73,3.73,0,0,0,1.06,2.73,3.69,3.69,0,0,0,5.35,0,3.86,3.86,0,0,0,1.07-2.73v-11a4.77,4.77,0,0,0-.31-2.09,1.6,1.6,0,0,0-1.4-.5V14.43h5.07V16.5a1.65,1.65,0,0,0-1.22.5,3.06,3.06,0,0,0-.47,2.05v11.7a5.05,5.05,0,0,1-1.88,4A6.84,6.84,0,0,1,131.19,36,7.06,7.06,0,0,1,128.75,36.38Z" />
    <path fill="url(#gold-noise)" class="mcnh"
        d="M148.29,30.25c0-.27,0-.53,0-.78s0-.5,0-.77c0-1.49-.57-2.28-1.7-2.36V24.25l7,0,0,2.07c-1.19,0-1.77.9-1.75,2.61l0,1.05v6.1h-1.8q-.07-.6-.54-.6a3.17,3.17,0,0,0-1.21.36,6.91,6.91,0,0,1-1.22.39,6,6,0,0,1-1.28.13,6.59,6.59,0,0,1-1.75-.24,6.16,6.16,0,0,1-2-.94,6.81,6.81,0,0,1-1.65-1.69,13.87,13.87,0,0,1-2.19-8.23A13.88,13.88,0,0,1,140.44,17a7,7,0,0,1,1.65-1.69,6.16,6.16,0,0,1,2-.94c.3-.07.58-.12.87-.16a6.19,6.19,0,0,1,.88-.06,5.86,5.86,0,0,1,1.26.13,8,8,0,0,1,1.24.39,3.15,3.15,0,0,0,1.21.34c.31,0,.49-.21.54-.62h1.8v6.33h-1.61a5.62,5.62,0,0,0-1.53-3.54,3.55,3.55,0,0,0-1.34-.78,5.51,5.51,0,0,0-1.46-.18,3.15,3.15,0,0,0-1.69.52,3.46,3.46,0,0,0-1.36,1.59,16.07,16.07,0,0,0-1.18,6.9,24.68,24.68,0,0,0,.29,4,11.58,11.58,0,0,0,.86,2.93,5.34,5.34,0,0,0,1.19,1.57,2.15,2.15,0,0,0,1.44.55c1.8,0,2.73-.85,2.78-2.56Z" />
    <path fill="url(#gold-noise)" class="mcnh"
        d="M160.34,31.37c0,1.73.56,2.61,1.74,2.62L162,36.06h-7V34c1.13-.06,1.69-.86,1.68-2.37V18.91c0-1.5-.54-2.29-1.68-2.37V14.43h7l.05,2.11c-1.18,0-1.76.89-1.74,2.63,0,.44,0,.88,0,1.31v3.75h5.45V20.3c0-.46,0-.92,0-1.39,0-1.5-.55-2.29-1.66-2.37l0-2.11h7l0,2.11c-1.19,0-1.77.9-1.75,2.63,0,1,0,2.06,0,3.07v6.09c0,1,0,2,0,3.05,0,1.71.56,2.59,1.75,2.61l0,2.07h-7l0-2.07c1.11-.05,1.66-.84,1.66-2.38V28.86c0-.47,0-.91,0-1.32V26.22h-5.45v1.26c0,.42,0,.83,0,1.24Z" />
    <path fill="url(#gold-noise)" class="mcnh"
        d="M183.32,36.06h-7V34c1.1-.12,1.65-.86,1.68-2.21V16.46a3.58,3.58,0,0,0-1.58.25,3.27,3.27,0,0,0-1.19.87,4.82,4.82,0,0,0-1.06,3.18h-1.59V14.43H187v6.33h-1.64c-.14-2.94-1.39-4.36-3.73-4.28V31.66c0,1.54.58,2.33,1.71,2.35Z" />
    <path fill="url(#gold-noise)" class="mcnh"
        d="M195.83,14.19A6.15,6.15,0,0,1,201.05,17a14,14,0,0,1,2.16,8.24,14.1,14.1,0,0,1-2.14,7.85q-2.16,3.25-5.24,3.25a5.89,5.89,0,0,1-2.92-.74,7.43,7.43,0,0,1-2.33-2.13,11.82,11.82,0,0,1-1.6-3.59,17.5,17.5,0,0,1-.57-4.64,17.52,17.52,0,0,1,.57-4.65,11.71,11.71,0,0,1,1.6-3.59,7.4,7.4,0,0,1,2.34-2.11A5.88,5.88,0,0,1,195.83,14.19Zm-.05,2.07c-1.16,0-2.08.7-2.76,2.11a10.4,10.4,0,0,0-.86,2.89,25.75,25.75,0,0,0-.27,4,25.66,25.66,0,0,0,.27,4A10.43,10.43,0,0,0,193,32.1q1,2.13,2.76,2.13a2.43,2.43,0,0,0,1.53-.53,4.41,4.41,0,0,0,1.2-1.56,11.83,11.83,0,0,0,.88-2.93,23.43,23.43,0,0,0,.3-4,23.47,23.47,0,0,0-.3-4,11,11,0,0,0-.9-2.93h0A3.09,3.09,0,0,0,195.78,16.26Z" />
    <path fill="url(#gold-noise)" class="mcnh"
        d="M204.64,36.06V34a1.7,1.7,0,0,0,1.23-.48,3.1,3.1,0,0,0,.47-2.05V18.25a1.76,1.76,0,0,0-.47-1.31,1.24,1.24,0,0,0-1-.5v-2h4.18l7.61,13.18V19.05a3.17,3.17,0,0,0-.46-2.09,1.66,1.66,0,0,0-1.23-.5V14.41h5.05v2.05c-.73,0-1.18.17-1.38.52a4.54,4.54,0,0,0-.31,2.09v17h-1.58L208,20.21V31.4a4.33,4.33,0,0,0,.32,2.09c.2.32.66.48,1.37.48v2.09Z" />
    <path fill="url(#gold-noise)" class="mcnh"
        d="M236.23,30q0,3.78,2.16,3.84l0,2.29H230.1l0-2.29c1.39-.11,2.08-1.27,2.06-3.49V13c0-2.2-.67-3.37-2.06-3.49l0-2.33,8.26,0,0,2.31q-2.19.06-2.16,3.84c0,1.2,0,2.4,0,3.59s0,2.38,0,3.57h7.13c0-1.25,0-2.5,0-3.75s0-2.5,0-3.76c0-2.2-.69-3.37-2.06-3.49l0-2.33,8.24,0,.06,2.31c-1.48,0-2.2,1.32-2.18,3.84q0,8.3,0,16.58c0,2.52.7,3.8,2.18,3.84l-.06,2.29h-8.24l0-2.29c1.37-.11,2.06-1.27,2.06-3.49,0-1.26,0-2.53,0-3.8s0-2.54,0-3.8h-7.13c0,1.21,0,2.42,0,3.63S236.23,28.75,236.23,30Z" />
    <path fill="url(#gold-noise)" class="mcnh"
        d="M257,14.19A6.15,6.15,0,0,1,262.18,17a14,14,0,0,1,2.16,8.24,14.1,14.1,0,0,1-2.14,7.85Q260,36.38,257,36.38a5.89,5.89,0,0,1-2.92-.74,7.43,7.43,0,0,1-2.33-2.13,11.82,11.82,0,0,1-1.6-3.59,17.5,17.5,0,0,1-.57-4.64,17.52,17.52,0,0,1,.57-4.65,11.71,11.71,0,0,1,1.6-3.59,7.4,7.4,0,0,1,2.34-2.11A5.88,5.88,0,0,1,257,14.19Zm0,2.07c-1.16,0-2.08.7-2.76,2.11a10.07,10.07,0,0,0-.86,2.89,25.75,25.75,0,0,0-.27,4,25.66,25.66,0,0,0,.27,4,10.1,10.1,0,0,0,.86,2.88q1,2.13,2.76,2.13a2.43,2.43,0,0,0,1.53-.53,4.41,4.41,0,0,0,1.2-1.56,11.83,11.83,0,0,0,.88-2.93,23.43,23.43,0,0,0,.3-4,23.47,23.47,0,0,0-.3-4,11,11,0,0,0-.9-2.93h0A3.09,3.09,0,0,0,256.91,16.26Z" />
    <path fill="url(#gold-noise)" class="mcnh"
        d="M265.77,36.06V34a1.7,1.7,0,0,0,.67-.13,1.79,1.79,0,0,0,.55-.35,3,3,0,0,0,.48-2V18.39q0-2-1.68-1.95v-2h5.38l4.91,14.7,2.43-7.35,2.43-7.35h5.29v2c-1.11,0-1.68.63-1.68,1.89V31.5c0,1.66.59,2.49,1.74,2.49v2.07h-7.06V34c1.15.07,1.72-.76,1.72-2.49V20.2L275.6,36.06h-1.29l-5.18-15.4V31.42a4.76,4.76,0,0,0,.29,2.09c.21.32.67.48,1.39.48v2.07Z" />
    <path fill="url(#gold-noise)" class="mcnh"
        d="M293.1,16.5v7.79h2.64a2.32,2.32,0,0,0,1.64-.4,2.67,2.67,0,0,0,.39-1.77h1.63v6.37h-1.63a2.76,2.76,0,0,0-.39-1.53c-.25-.4-.79-.6-1.63-.6H293.1V34H297q3.68,0,3.87-4.26h1.67V36H287.84l0-2.07c1.12-.06,1.68-.86,1.68-2.37l0-12.73c0-1.63-.59-2.45-1.77-2.45v-2h14.75v6.33h-1.67q-.19-4.36-3.87-4.26Z" />
    <path fill="url(#gold-noise)" class="mcnh"
        d="M316.78,20.74h-1.61a7.68,7.68,0,0,0-.57-2.09,4.44,4.44,0,0,0-1-1.45,4.2,4.2,0,0,0-1.36-.72,5,5,0,0,0-1.73-.24,4.09,4.09,0,0,0-2.21.54,2.12,2.12,0,0,0-.8.86,2.9,2.9,0,0,0-.26,1.19,2.39,2.39,0,0,0,.73,1.83,2.81,2.81,0,0,0,1.21.7,10.52,10.52,0,0,0,1.65.39,10.33,10.33,0,0,1,1.68.41,9.89,9.89,0,0,1,1.33.55,11.68,11.68,0,0,1,1.12.7,8.85,8.85,0,0,1,1,.81,6.17,6.17,0,0,1,1.47,2.4,8,8,0,0,1,.36,3,9.6,9.6,0,0,1-.52,2.59,6.09,6.09,0,0,1-6.38,4.14,8.27,8.27,0,0,1-3.23-.6,3.78,3.78,0,0,0-1.25-.34c-.37,0-.56.22-.59.68h-1.7V29h1.65a9.58,9.58,0,0,0,.54,2.27,5.11,5.11,0,0,0,.94,1.59,4.67,4.67,0,0,0,1.51.93,4.71,4.71,0,0,0,1.9.29,3.72,3.72,0,0,0,2.91-1.26,2.91,2.91,0,0,0,.62-1.1,5.24,5.24,0,0,0,.23-1.45,3.3,3.3,0,0,0-1.09-2.57h0a5.35,5.35,0,0,0-1.64-.91,15.31,15.31,0,0,0-2.48-.64,8.78,8.78,0,0,1-2.24-.72,4.9,4.9,0,0,1-1.66-1.23,5.55,5.55,0,0,1-1.38-3.81,5.94,5.94,0,0,1,2.32-5.15,5.46,5.46,0,0,1,1.88-.84,9.61,9.61,0,0,1,2.21-.26,9.21,9.21,0,0,1,1.54.16,7.51,7.51,0,0,1,1.32.38,3.18,3.18,0,0,0,1.23.34c.31,0,.49-.21.54-.62h1.81Z" />
    <path fill="url(#gold-noise)" class="tcb"
        d="M100,50.07H95.8v-.84a1,1,0,0,0,1-1.18v-7.6A2.56,2.56,0,0,0,95,41a2,2,0,0,0-.68,1.53h-.8V39.64h8.78v2.92h-.84c-.09-1.48-.92-2.17-2.51-2.09V48q0,1.24,1.08,1.26Z" />
    <path fill="url(#gold-noise)" class="tcb"
        d="M105.64,48.37c0,.62.28.94.87.94l0,.75H103v-.75c.57,0,.86-.31.85-.85V43.87c0-.54-.27-.83-.85-.86v-.76h3.52l0,.76c-.59,0-.88.32-.87,1v.48c0,.16,0,.31,0,.47v.88h2.74V43.87a.78.78,0,0,0-.83-.86v-.76h3.51l0,.76c-.6,0-.89.33-.88,1v1.11c0,.37,0,.73,0,1.1s0,.73,0,1.1v1.1c0,.62.28.93.88.94l0,.75h-3.51v-.75a.76.76,0,0,0,.83-.86V46.51h-2.74c0,.15,0,.3,0,.45v1.41Z" />
    <path fill="url(#gold-noise)" class="tcb"
        d="M114.51,43v2.81h1.33a1.63,1.63,0,0,0,.83-.14c.13-.1.19-.31.19-.64h.83v2.3h-.83a.81.81,0,0,0-.19-.56,1.14,1.14,0,0,0-.82-.21h-1.34v2.75h1.94q1.85,0,2-1.53h.84v2.27h-7.38v-.75a.77.77,0,0,0,.84-.85l0-4.6a.78.78,0,0,0-.89-.88v-.73h7.43v2.29h-.84c-.07-1-.72-1.57-2-1.54Z" />
    <path fill="url(#gold-noise)" class="tcb"
        d="M132.6,42.56h-.8a2.55,2.55,0,0,0-1-1.73,2.58,2.58,0,0,0-.87-.4,4.45,4.45,0,0,0-.93-.09,2.54,2.54,0,0,0-1.09.27,2.13,2.13,0,0,0-.9.81,6.59,6.59,0,0,0-.74,3.43,6.53,6.53,0,0,0,.74,3.42,2.1,2.1,0,0,0,.88.82,2.28,2.28,0,0,0,1,.27,2.65,2.65,0,0,0,1.77-.6,3,3,0,0,0,1-1.35h.91a4.21,4.21,0,0,1-1.32,2,3.44,3.44,0,0,1-2.28.79,5.09,5.09,0,0,1-1.84-.35,3.89,3.89,0,0,1-1.51-1,5.73,5.73,0,0,1-1.32-4,5.72,5.72,0,0,1,1.32-4,4,4,0,0,1,2.24-1.27,4.83,4.83,0,0,1,2.59.14c.75.27,1.16.23,1.22-.13h.92Z" />
    <path fill="url(#gold-noise)" class="tcb"
        d="M137.06,42.16a3.6,3.6,0,0,1,2.64,1,4.44,4.44,0,0,1,0,5.81,3.47,3.47,0,0,1-2.64,1.18,3.85,3.85,0,0,1-1.47-.27,3.42,3.42,0,0,1-2-2.07,5.15,5.15,0,0,1,0-3.35,3.86,3.86,0,0,1,.81-1.3,3.81,3.81,0,0,1,1.17-.76A3.92,3.92,0,0,1,137.06,42.16Zm0,.75a1.58,1.58,0,0,0-1.39.76,2.86,2.86,0,0,0-.43,1,7.42,7.42,0,0,0,0,2.87,2.81,2.81,0,0,0,.43,1,1.61,1.61,0,0,0,1.39.77,1.52,1.52,0,0,0,.77-.19,1.87,1.87,0,0,0,.6-.56,3.42,3.42,0,0,0,.45-1.06,6.25,6.25,0,0,0,.15-1.44,6.1,6.1,0,0,0-.15-1.43,3.56,3.56,0,0,0-.45-1.06h0A1.58,1.58,0,0,0,137,42.91Z" />
    <path fill="url(#gold-noise)" class="tcb"
        d="M141.51,50.06v-.75a1.24,1.24,0,0,0,.33,0,1.46,1.46,0,0,0,.28-.13.9.9,0,0,0,.24-.74V43.68c0-.47-.28-.7-.85-.7v-.73h2.72l2.47,5.31,1.22-2.66,1.23-2.65h2.67V43c-.57,0-.85.22-.85.68v4.75a.79.79,0,0,0,.88.9v.75h-3.57v-.75q.87,0,.87-.9V44.33l-2.69,5.73h-.65L143.2,44.5v3.88a1.37,1.37,0,0,0,.14.76,1,1,0,0,0,.7.17v.75Z" />
    <path fill="url(#gold-noise)" class="tcb"
        d="M152.57,50.06v-.75a1.27,1.27,0,0,0,.34,0,1.46,1.46,0,0,0,.28-.13.93.93,0,0,0,.23-.74V43.68c0-.47-.28-.7-.84-.7v-.73h2.71l2.48,5.31c.4-.89.81-1.77,1.22-2.66s.82-1.76,1.22-2.65h2.67V43c-.56,0-.84.22-.84.68v4.75a.78.78,0,0,0,.87.9v.75h-3.56v-.75q.87,0,.87-.9V44.33l-2.7,5.73h-.64l-2.62-5.56v3.88a1.27,1.27,0,0,0,.15.76,1,1,0,0,0,.7.17v.75Z" />
    <path fill="url(#gold-noise)" class="tcb"
        d="M167.73,50.18A4.71,4.71,0,0,1,166.5,50a4.17,4.17,0,0,1-1-.44,1.71,1.71,0,0,1-1-1.45V43.9a.79.79,0,0,0-.88-.9v-.75h3.58V43c-.58,0-.88.29-.88.91v4a1.16,1.16,0,0,0,.54,1,2.21,2.21,0,0,0,1.35.42,2.16,2.16,0,0,0,1.34-.42,1.19,1.19,0,0,0,.55-1v-4a1.32,1.32,0,0,0-.16-.75,1,1,0,0,0-.7-.18v-.75h2.55V43a1,1,0,0,0-.62.18c-.16.11-.23.36-.23.74v4.22a1.7,1.7,0,0,1-.95,1.45A4.09,4.09,0,0,1,169,50,4.69,4.69,0,0,1,167.73,50.18Z" />
    <path fill="url(#gold-noise)" class="tcb"
        d="M172.52,50.06v-.75a1.05,1.05,0,0,0,.62-.18.92.92,0,0,0,.23-.74V43.63a.54.54,0,0,0-.23-.47.76.76,0,0,0-.49-.18v-.73h2.11L178.6,47V43.92a1,1,0,0,0-.23-.76,1.07,1.07,0,0,0-.63-.18v-.74h2.55V43a.93.93,0,0,0-.7.19,1.31,1.31,0,0,0-.15.76v6.13h-.8l-4.43-5.72v4a1.14,1.14,0,0,0,.16.75q.15.18.69.18v.75Z" />
    <path fill="url(#gold-noise)" class="tcb"
        d="M183.66,48.37c0,.62.28.93.88.94l0,.75H181v-.75a.77.77,0,0,0,.85-.85V43.87A.78.78,0,0,0,181,43v-.76h3.52l0,.76c-.6,0-.89.33-.88,1,0,.38,0,.75,0,1.11s0,.73,0,1.1,0,.73,0,1.1S183.66,48,183.66,48.37Z" />
    <path fill="url(#gold-noise)" class="tcb"
        d="M190.67,50.06h-3.52v-.75c.55,0,.83-.31.85-.8V43a2.51,2.51,0,0,0-.81.09,1.77,1.77,0,0,0-.59.32,1.49,1.49,0,0,0-.54,1.15h-.8V42.25h7.26v2.29h-.83c-.07-1.06-.7-1.58-1.88-1.55v5.48a.77.77,0,0,0,.86.85Z" />
    <path fill="url(#gold-noise)" class="tcb"
        d="M198.66,50.06h-3.54v-.75c.56,0,.84-.31.84-.8V46.62l-.82-1.48-.83-1.47-.16-.27-.18-.22a1,1,0,0,0-.73-.2v-.73h3.4V43c-.24,0-.36,0-.37.13a.38.38,0,0,0,0,.26l1.13,2c.15-.32.31-.64.46-1s.31-.64.46-.95h0a.31.31,0,0,0,0-.14.38.38,0,0,0-.06-.18.27.27,0,0,0-.16-.13.92.92,0,0,0-.36,0v-.76h2.54V43a1.26,1.26,0,0,0-.82.16,1.54,1.54,0,0,0-.37.49l-.68,1.44c-.23.49-.46,1-.7,1.45,0,.32,0,.64,0,1v1c0,.56.29.84.88.85Z" />
    <path fill="url(#gold-noise)" class="tcb"
        d="M205.41,40.44v-.8h5.93a3.07,3.07,0,0,1,2.28.82,2.78,2.78,0,0,1,.54.79,2.84,2.84,0,0,1,.19,1.13,2.55,2.55,0,0,1-1.1,2.23,2.17,2.17,0,0,1-.44.24,2.65,2.65,0,0,1,.44.26,2.54,2.54,0,0,1,1.1,2.22,2.82,2.82,0,0,1-.19,1.14,2.6,2.6,0,0,1-.54.78,3,3,0,0,1-2.28.82h-5.87v-.83c.7,0,1-.46,1-1.26l0-6.25C206.5,40.87,206.14,40.44,205.41,40.44Zm3.15,0v4h1.89a1.8,1.8,0,0,0,2-2.09A2.25,2.25,0,0,0,211.9,41a1.87,1.87,0,0,0-1.41-.49Zm1.93,4.78h-1.93v4l1.89,0a1.93,1.93,0,0,0,1.54-.58,2,2,0,0,0,.43-1.5,2.28,2.28,0,0,0-.52-1.42A1.89,1.89,0,0,0,210.49,45.24Z" />
    <path fill="url(#gold-noise)" class="tcb"
        d="M219.17,50.18a4.82,4.82,0,0,1-1.23-.15,4.17,4.17,0,0,1-1-.44,1.71,1.71,0,0,1-1-1.45V43.9a.78.78,0,0,0-.87-.9v-.75h3.57V43c-.58,0-.87.29-.87.91v4a1.18,1.18,0,0,0,.53,1,2.38,2.38,0,0,0,2.7,0,1.2,1.2,0,0,0,.54-1v-4a1.32,1.32,0,0,0-.16-.75,1,1,0,0,0-.7-.18v-.75h2.55V43a1,1,0,0,0-.61.18c-.16.11-.24.36-.24.74v4.22a1.7,1.7,0,0,1-.95,1.45,4.17,4.17,0,0,1-1,.44A4.76,4.76,0,0,1,219.17,50.18Z" />
    <path fill="url(#gold-noise)" class="tcb"
        d="M226.61,48.37a.81.81,0,0,0,.88.94l0,.75H224v-.75a.77.77,0,0,0,.85-.85V43.87A.78.78,0,0,0,224,43v-.76h3.51l0,.76a.81.81,0,0,0-.88,1c0,.38,0,.75,0,1.11s0,.73,0,1.1,0,.73,0,1.1S226.61,48,226.61,48.37Z" />
    <path fill="url(#gold-noise)" class="tcb"
        d="M228.22,42.25h3.58V43a.78.78,0,0,0-.88.88v5.45h1.94q1.86,0,1.95-1.53h.84v2.27h-7.38v-.75a.77.77,0,0,0,.85-.85l0-4.6a.79.79,0,0,0-.9-.88Z" />
    <path fill="url(#gold-noise)" class="tcb"
        d="M236.38,42.25h3.9a3.64,3.64,0,0,1,2.64,1,3.89,3.89,0,0,1,1.09,2.9,4,4,0,0,1-.27,1.5,3.87,3.87,0,0,1-.8,1.25,3.58,3.58,0,0,1-2.66,1.15h-3.85v-.75a.77.77,0,0,0,.85-.85l0-4.6a.78.78,0,0,0-.89-.88Zm3.9,7.06a1.62,1.62,0,0,0,1.36-.74,3,3,0,0,0,.44-1,6.43,6.43,0,0,0,.14-1.4,4.21,4.21,0,0,0-.58-2.44h0a1.62,1.62,0,0,0-1.36-.74h-1.2v6.33Z" />
    <path fill="url(#gold-noise)" class="tcb"
        d="M247.44,43v2.81h1.33a1.63,1.63,0,0,0,.83-.14.79.79,0,0,0,.2-.64h.82v2.3h-.82a.82.82,0,0,0-.2-.56,1.14,1.14,0,0,0-.82-.21h-1.34v2.75h1.94c1.24,0,1.89-.51,2-1.53h.84v2.27h-7.39v-.75a.77.77,0,0,0,.85-.85l0-4.6a.78.78,0,0,0-.89-.88v-.73h7.44v2.29h-.84c-.07-1-.72-1.57-2-1.54Z" />
    <path fill="url(#gold-noise)" class="tcb"
        d="M252.91,42.25h4.59a4.18,4.18,0,0,1,2.2.56,2,2,0,0,1,.9,1.82A2.15,2.15,0,0,1,260,46.2a3,3,0,0,1-1.26.71,1.6,1.6,0,0,1,.61,1.27c0,.48.15.72.44.72a.39.39,0,0,0,.31-.12.54.54,0,0,0,.12-.35c0-.11,0-.21,0-.3a2.35,2.35,0,0,0,0-.26,1,1,0,0,0,0-.17c0-.06,0-.12,0-.18h.89c0,.11,0,.22.05.32s0,.2,0,.31a2.88,2.88,0,0,1-.06.59,2.16,2.16,0,0,1-.18.58h0a1.36,1.36,0,0,1-1.41.87,1.88,1.88,0,0,1-1.54-.51,2.1,2.1,0,0,1-.34-.5,3.73,3.73,0,0,1-.2-.56c0-.1-.05-.2-.07-.3a2.86,2.86,0,0,0-.07-.28,2,2,0,0,0,0-.24c0-.08,0-.16-.05-.22a.5.5,0,0,0-.54-.43h-1.1v1.23c0,.62.29.94.89.94l0,.75H253v-.75a.77.77,0,0,0,.84-.85l0-4.6a.78.78,0,0,0-.88-.88Zm2.69.74v3.37h1.18a2.18,2.18,0,0,0,1.5-.44,1.63,1.63,0,0,0,.43-1.32,1.73,1.73,0,0,0-.57-1.18,2,2,0,0,0-1.39-.43Z" />
    <path fill="url(#gold-noise)" class="ringer"
        d="M27.09,24.5a8.51,8.51,0,0,1,.24,3.44c-.12.78-.26,1.54-.43,2.26-.95,3.94-2.88,7.05-7,8.62l-.54.14-.08-.09a4.3,4.3,0,0,0-6.12,0l-.09.1-.62-.16C7.63,37,5.67,32.49,5,27.93a8.68,8.68,0,0,1,.29-3.62V19.08H0v4.18a2.31,2.31,0,0,1,1.37.65,2.29,2.29,0,0,1,.59,1,13.47,13.47,0,0,1,.37,1.43c.19,1,.63,3.17,1.16,6a13.35,13.35,0,0,0,6.18,9h0a8.72,8.72,0,0,0,1.31.81c.43.22,1.15.55,1.94.88a3.27,3.27,0,0,0,.7.69,4.31,4.31,0,0,0,2.56.83,4.24,4.24,0,0,0,2.59-.86,3.83,3.83,0,0,0,.73-.72c.74-.31,1.39-.6,1.8-.82a7.89,7.89,0,0,0,1.33-.81,13.36,13.36,0,0,0,6.18-9c.52-2.83,1-5,1.16-6a13.47,13.47,0,0,1,.37-1.43,2.36,2.36,0,0,1,1.95-1.62V19.09H27v5.23A1,1,0,0,1,27.09,24.5Z" />
    <path fill="url(#gold-noise)" class="ringer"
        d="M23.48,10.87c.06-.41-.12-1-.44-1-.85,0-1.36-.77-1.87-1.29a9.34,9.34,0,0,0-3.39-1.85.61.61,0,0,1-.12.15,1.72,1.72,0,0,1-1,.48h-1a1.39,1.39,0,0,1-.95-.52,1,1,0,0,1-.12-.14A9.23,9.23,0,0,0,11.25,8.6c-.51.52-1,1.3-1.86,1.3-.32,0-.54.56-.51,1Z" />
    <path fill="url(#gold-noise)" class="ringer"
        d="M10.67,13.9a4,4,0,0,1-.31,2.66,6.33,6.33,0,0,1-.91,1,7.31,7.31,0,0,1-2.32,1.33H25.28A7.35,7.35,0,0,1,23,17.61a6.39,6.39,0,0,1-.9-1.05,4,4,0,0,1-.32-2.66l0-.08H10.65A.24.24,0,0,1,10.67,13.9Z" />
    <path fill="url(#gold-noise)" class="ringer" d="M23.44,11.89H9a1.12,1.12,0,0,0,.24.91h14A1.18,1.18,0,0,0,23.44,11.89Z" />
    <path fill="url(#gold-noise)" class="ringer"
        d="M15.16,3.84a4.89,4.89,0,0,0,.31,2.32.79.79,0,0,0,.27.21h.84a.68.68,0,0,0,.36-.17,6.87,6.87,0,0,0,.33-2.36" />
    <polygon fill="url(#gold-noise)" class="mcnh" points="5.33 19.95 5.34 19.95 5.33 19.21 5.33 19.95" />
    <rect fill="url(#gold-noise)" class="ringer" x="6.31" y="19.95" width="19.71" height="4.21" />
    <path fill="url(#gold-noise)" class="ringer"
        d="M16.21,45.56a5.35,5.35,0,0,1-2.77-.77,3.69,3.69,0,0,0-.27,1.35,2.88,2.88,0,0,0,1.73,3,5.78,5.78,0,0,0,1.32.23,5.74,5.74,0,0,0,1.34-.25,2.86,2.86,0,0,0,1.73-2.94A3.56,3.56,0,0,0,19,44.77,5.33,5.33,0,0,1,16.21,45.56Z" />
    <path fill="url(#gold-noise)" class="ringer"
        d="M7.78,26.18a14,14,0,0,1,2.4,3.29,34.62,34.62,0,0,1,2.17,5.38A25.94,25.94,0,0,1,13,37.66a5.33,5.33,0,0,1,6.46,0,26.5,26.5,0,0,1,.63-2.81,34.48,34.48,0,0,1,2.18-5.37,14,14,0,0,1,2.39-3.3,10.47,10.47,0,0,1,1.33-1H6.46A10.44,10.44,0,0,1,7.78,26.18Z" />
    <path fill="url(#gold-noise)" class="ringer"
        d="M15.72,50.18a6.88,6.88,0,0,0-.28,2.76c.17.93.54.93.72.93.66,0,.82-.89.83-.93a7,7,0,0,0-.32-2.76Z" />
    <path fill="url(#gold-noise)" class="ringer"
        d="M15.65,6.37h1a.75.75,0,0,0,.4-.2,7.64,7.64,0,0,0,.38-2.69c0-2.16-.7-3.48-1.21-3.48S15,1.32,15,3.48a5.66,5.66,0,0,0,.35,2.65A1.11,1.11,0,0,0,15.65,6.37Z" />
    <path fill="url(#gold-noise)" class="ringer"
        d="M22,51h-.19V49.54h-.49v-.17h1.16v.17H22Zm1.33,0-.49-1.35h0V51h-.18v-1.6h.28l.49,1.34.49-1.34h.28V51H24V49.62h0L23.5,51Z" />
</svg>